<svg width="1135" height="298" viewBox="0 0 1135 298" fill="none" xmlns="http://www.w3.org/2000/svg">
<path d="M149 278.565C146.748 278.565 144.496 277.784 142.677 276.225C133.709 268.542 125.016 261.181 116.643 254.095C48.9285 196.774 0 155.358 0 102.181C0 55.0083 33.4197 19.4346 77.739 19.4346C115.444 19.4346 137.757 45.743 149 64.8901C160.243 45.743 182.555 19.4346 220.261 19.4346C264.58 19.4346 298 55.0083 298 102.181C298 155.358 249.072 196.774 181.356 254.094C172.983 261.18 164.291 268.54 155.323 276.224C153.504 277.784 151.252 278.565 149 278.565Z" fill="#F49AEE"/>
<path d="M155.323 276.224C164.291 268.541 172.984 261.18 181.357 254.094C249.072 196.774 298 155.358 298 102.181C298 55.0083 264.58 19.4346 220.261 19.4346C182.556 19.4346 160.243 45.743 149 64.8901V278.565C151.252 278.565 153.504 277.784 155.323 276.224Z" fill="#744DBA"/>
<path d="M409.552 224.44C397.605 224.44 389.925 220.429 386.512 212.408C385.659 212.579 384.805 212.664 383.952 212.664H381.136C366.8 212.664 359.632 208.739 359.632 200.888C359.632 197.645 360.827 196.024 363.216 196.024C364.069 196.024 364.496 196.365 364.496 197.048L363.984 198.328C363.472 199.011 363.216 199.693 363.216 200.376C363.216 203.96 366.032 206.52 371.664 208.056C375.76 209.251 380.368 209.592 385.488 209.08C385.317 208.568 385.232 207.629 385.232 206.264C385.232 199.608 388.56 192.44 395.216 184.76C404.091 174.52 417.659 167.352 435.92 163.256C437.968 159.501 440.016 155.149 442.064 150.2C444.112 145.592 446.16 140.984 448.208 136.376C450.256 131.768 452.219 127.16 454.096 122.552C460.069 109.411 465.616 98.8293 470.736 90.808C466.128 75.96 458.448 65.3787 447.696 59.064C446.843 58.8933 445.989 58.808 445.136 58.808H442.32C430.544 58.808 418.427 63.416 405.968 72.632C393.68 81.6773 384.805 92.6853 379.344 105.656C378.491 107.875 377.637 110.093 376.784 112.312C376.101 114.36 375.589 116.493 375.248 118.712C377.979 124.003 381.392 127.843 385.488 130.232C389.584 132.621 394.277 133.816 399.568 133.816C406.224 133.816 412.368 131.768 418 127.672C424.144 123.405 427.643 118.285 428.496 112.312C428.496 111.629 428.837 111.288 429.52 111.288C430.203 111.459 430.544 111.885 430.544 112.568C429.861 118.712 426.107 124.259 419.28 129.208C412.965 133.645 406.139 135.864 398.8 135.864C393.851 135.864 389.328 134.925 385.232 133.048C381.136 131.171 377.637 128.184 374.736 124.088C374.565 124.941 374.48 125.795 374.48 126.648C374.48 127.501 374.48 128.355 374.48 129.208C374.48 135.864 375.931 141.411 378.832 145.848C383.269 152.333 390.352 155.576 400.08 155.576C407.419 155.576 414.672 153.016 421.84 147.896C426.619 144.483 430.373 140.899 433.104 137.144C433.787 135.949 434.299 135.693 434.64 136.376V136.632C434.64 136.803 434.555 137.144 434.384 137.656C434.384 137.997 434.299 138.424 434.128 138.936C431.909 143.715 427.216 148.493 420.048 153.272C411.515 158.733 403.237 161.464 395.216 161.464C385.317 161.464 377.808 158.307 372.688 151.992C368.251 146.189 366.032 138.851 366.032 129.976C366.032 124.344 366.971 118.456 368.848 112.312C367.653 108.728 367.056 104.632 367.056 100.024C367.056 81.7627 375.589 67.512 392.656 57.272C401.189 51.9813 410.576 49.336 420.816 49.336C428.667 49.336 436.261 51.0427 443.6 54.456L444.88 55.224C445.733 55.0533 446.672 54.968 447.696 54.968H450.256C467.664 54.968 480.464 60.1733 488.656 70.584C490.875 69.048 493.264 68.024 495.824 67.512C496.848 67.3413 497.36 67.6827 497.36 68.536C497.36 69.7307 496.592 70.4133 495.056 70.584C493.349 70.9253 491.728 71.6933 490.192 72.888C495.824 81.4213 498.64 92.7707 498.64 106.936C498.64 122.808 495.141 141.496 488.144 163L496.08 165.048L499.408 159.16C516.475 130.829 529.531 110.861 538.576 99.256C559.739 72.12 578 58.552 593.36 58.552C597.456 58.552 600.699 60.088 603.088 63.16C605.648 66.0613 606.928 69.6453 606.928 73.912C606.928 76.8133 606.587 78.264 605.904 78.264C605.051 78.264 604.624 77.6667 604.624 76.472C604.624 68.9627 600.699 65.208 592.848 65.208C589.435 65.208 586.107 65.976 582.864 67.512C570.064 73.3147 554.789 87.9067 537.04 111.288C533.115 116.579 527.995 123.832 521.68 133.048C515.536 142.093 508.197 153.272 499.664 166.584C514.341 172.557 521.68 181.176 521.68 192.44C521.68 195.853 521.083 199.096 519.888 202.168C519.888 202.68 519.632 202.936 519.12 202.936C517.925 202.936 517.499 202.424 517.84 201.4C519.035 198.328 519.632 195.256 519.632 192.184C519.632 181.432 512.635 173.411 498.64 168.12L498.128 168.888C485.157 189.027 476.539 199.096 472.272 199.096C471.077 199.096 470.736 198.584 471.248 197.56C475.515 187.32 479.099 176.141 482 164.024L474.32 163C466.64 190.307 451.365 209.336 428.496 220.088C422.181 222.989 415.867 224.44 409.552 224.44ZM371.408 105.4C377.04 92.9413 386.512 81.9333 399.824 72.376C413.136 62.8187 426.789 57.1867 440.784 55.48C434.64 52.7493 427.984 51.384 420.816 51.384C411.088 51.384 402.043 53.944 393.68 59.064C378.661 67.9387 371.152 81.4213 371.152 99.512V102.584C371.152 103.608 371.237 104.547 371.408 105.4ZM473.552 86.456C476.112 82.872 478.245 80.056 479.952 78.008C474.149 68.1093 465.019 61.9653 452.56 59.576C461.947 65.8907 468.944 74.8507 473.552 86.456ZM482.512 161.72C486.608 145.165 488.656 130.061 488.656 116.408C488.656 102.413 486.523 91.064 482.256 82.36C480.379 85.432 478.331 89.272 476.112 93.88C478.501 102.584 479.696 112.056 479.696 122.296C479.696 135.779 478.075 148.664 474.832 160.952L482.512 161.72ZM551.632 208.056C539.685 208.056 533.712 199.693 533.712 182.968C533.712 166.755 537.296 147.555 544.464 125.368C553.851 96.696 565.371 82.872 579.024 83.896C580.048 83.896 580.56 84.408 580.56 85.432C580.219 86.456 579.365 86.968 578 86.968C568.613 86.968 560.251 101.389 552.912 130.232C547.28 152.419 544.464 169.4 544.464 181.176C544.464 196.195 548.304 203.704 555.984 203.704C562.64 203.704 569.125 198.499 575.44 188.088C576.123 187.064 576.805 186.552 577.488 186.552C578 186.552 578.256 186.808 578.256 187.32C578.256 188.173 578.085 188.856 577.744 189.368C574.843 195 570.917 199.523 565.968 202.936C561.189 206.349 556.411 208.056 551.632 208.056ZM448.976 161.208C454.096 160.696 459.216 160.44 464.336 160.44C465.531 160.44 466.725 160.44 467.92 160.44C469.285 160.44 470.565 160.525 471.76 160.696C474.32 150.285 475.6 138.595 475.6 125.624C475.6 116.237 474.747 107.789 473.04 100.28C470.651 106.765 467.749 114.445 464.336 123.32L452.304 153.528C451.28 156.259 450.171 158.819 448.976 161.208ZM409.552 222.648C415.013 222.648 421.072 221.197 427.728 218.296C449.403 208.056 463.824 189.624 470.992 163C467.067 162.829 463.141 162.829 459.216 163C455.291 163.171 451.365 163.597 447.44 164.28C432.592 192.781 413.648 208.653 390.608 211.896C393.168 219.064 399.483 222.648 409.552 222.648ZM474.832 195.768C478.757 193.891 485.499 184.248 495.056 166.84L487.632 164.792C485.755 170.595 483.707 176.056 481.488 181.176C479.44 186.296 477.221 191.16 474.832 195.768ZM389.584 208.568C406.139 205.325 420.987 191.416 434.128 166.84C418.427 170.936 406.821 177.251 399.312 185.784C391.973 193.976 388.731 201.571 389.584 208.568ZM581.33 196.024C575.869 195.171 573.138 191.331 573.138 184.504C573.138 174.093 577.917 162.573 587.474 149.944C597.373 136.632 607.613 129.976 618.194 129.976C621.778 129.976 625.021 130.829 627.922 132.536C630.994 134.072 632.53 136.547 632.53 139.96C632.53 143.885 630.909 146.104 627.666 146.616C628.69 144.909 629.202 143.203 629.202 141.496C629.202 137.741 627.069 135.864 622.802 135.864C618.706 135.864 614.269 137.912 609.49 142.008C597.714 152.077 589.095 163.768 583.634 177.08C581.927 181.176 581.074 184.589 581.074 187.32C581.074 189.539 581.842 190.648 583.378 190.648C585.085 190.648 588.071 188.685 592.338 184.76C595.239 182.029 601.554 173.752 611.282 159.928C613.842 156.344 615.89 154.552 617.426 154.552C618.791 154.552 619.474 158.136 619.474 165.304V179.64C621.01 187.149 623.655 190.904 627.41 190.904C629.458 190.904 631.933 190.221 634.834 188.856C637.906 187.32 640.893 184.931 643.794 181.688L648.402 176.824C648.914 176.653 649.511 176.995 650.194 177.848C649.511 179.725 646.525 182.883 641.234 187.32C634.578 192.952 628.434 195.768 622.802 195.768C621.266 195.768 619.73 195.512 618.194 195C613.757 193.464 610.855 188.685 609.49 180.664C609.149 178.445 608.807 176.568 608.466 175.032C608.295 173.496 608.21 172.216 608.21 171.192C608.21 170.68 608.21 170.253 608.21 169.912C607.186 171.96 604.199 176.227 599.25 182.712C591.911 192.269 585.938 196.707 581.33 196.024ZM655.2 196.28C652.981 196.28 651.104 196.024 649.568 195.512C648.032 195.171 646.837 194.744 645.984 194.232C643.936 192.696 642.912 189.795 642.912 185.528C642.912 184.163 642.997 182.627 643.168 180.92C643.509 179.213 643.851 177.251 644.192 175.032C644.875 170.936 647.093 163.597 650.848 153.016C651.701 150.797 652.384 148.835 652.896 147.128C653.579 145.421 654.091 143.971 654.432 142.776L655.712 139.448C651.957 139.448 645.643 140.216 636.768 141.752H636.512C635.829 141.752 635.488 140.899 635.488 139.192C635.488 137.144 636.256 135.864 637.792 135.352C638.987 134.84 645.557 134.157 657.504 133.304C658.869 128.867 660.491 123.747 662.368 117.944C664.416 111.971 666.72 105.4 669.28 98.232C669.451 97.208 670.133 96.696 671.328 96.696C672.693 96.696 674.229 97.8907 675.936 100.28C677.643 102.499 678.496 104.632 678.496 106.68C678.496 107.363 678.411 107.875 678.24 108.216L665.696 133.304C667.915 133.133 669.877 133.048 671.584 133.048C673.461 133.048 675.253 133.048 676.96 133.048C686.688 133.048 691.637 133.816 691.808 135.352C691.808 136.035 687.712 136.717 679.52 137.4C677.301 137.571 675.339 137.741 673.632 137.912C671.925 137.912 670.389 138.083 669.024 138.424L664.16 139.192C662.283 139.192 659.637 146.275 656.224 160.44C653.152 173.069 651.616 180.579 651.616 182.968C651.616 188.088 653.493 190.648 657.248 190.648C660.149 190.648 665.867 188.344 674.4 183.736C675.424 183.053 676.704 182.2 678.24 181.176C679.776 179.981 681.653 178.531 683.872 176.824C687.285 173.923 689.419 172.472 690.272 172.472C690.613 172.472 690.869 172.813 691.04 173.496C691.04 175.885 686.603 180.152 677.728 186.296C668.512 192.952 661.003 196.28 655.2 196.28ZM694.878 199.352C686.345 199.352 682.078 193.72 682.078 182.456C682.078 178.872 682.59 174.861 683.614 170.424C685.662 162.403 689.417 154.211 694.878 145.848C701.875 135.267 708.617 129.976 715.102 129.976C718.345 129.976 721.417 131.256 724.318 133.816C726.366 135.693 727.39 138.083 727.39 140.984C727.39 141.667 727.305 142.179 727.134 142.52C726.963 142.691 726.793 142.861 726.622 143.032C726.11 143.032 725.513 142.435 724.83 141.24C723.806 139.192 721.929 138.168 719.198 138.168C714.419 138.168 709.214 142.691 703.582 151.736C699.315 158.051 695.987 164.877 693.598 172.216C691.891 176.312 691.038 180.408 691.038 184.504C691.038 191.331 693.683 194.744 698.974 194.744C708.019 194.744 718.43 188.173 730.206 175.032C731.059 174.179 731.657 174.093 731.998 174.776V175.032C731.998 175.715 731.486 176.739 730.462 178.104C726.707 182.883 721.417 187.491 714.59 191.928C706.739 196.877 700.169 199.352 694.878 199.352ZM734.102 195.768C733.59 195.768 733.334 195.512 733.334 195C732.993 190.221 734.017 181.005 736.406 167.352C737.601 160.525 738.71 154.808 739.734 150.2C740.929 145.421 741.953 141.837 742.806 139.448C737.515 140.643 734.699 142.776 734.358 145.848C734.017 147.896 733.419 148.92 732.566 148.92C731.542 148.92 731.201 147.896 731.542 145.848C731.713 141.069 736.065 137.4 744.598 134.84C746.817 127.501 749.462 120.333 752.534 113.336C755.777 106.339 759.361 99.512 763.286 92.856C772.502 77.8373 782.23 66.4027 792.47 58.552C802.881 50.5307 813.462 46.52 824.214 46.52C838.038 46.52 847.254 52.3227 851.862 63.928C853.057 66.8293 853.654 69.9867 853.654 73.4C853.654 83.2987 848.79 91.9173 839.062 99.256C824.555 110.52 795.457 123.064 751.766 136.888C749.377 143.373 746.475 157.027 743.062 177.848L764.31 149.688C764.651 147.64 765.846 145.421 767.894 143.032C770.113 140.472 771.905 139.192 773.27 139.192C774.465 139.192 775.062 140.131 775.062 142.008C775.062 142.349 775.062 142.776 775.062 143.288C775.062 143.8 774.977 144.312 774.806 144.824C772.758 158.648 771.734 167.864 771.734 172.472C771.734 183.395 773.697 188.856 777.622 188.856C782.059 188.856 788.118 184.333 795.798 175.288L801.174 168.632C801.686 168.12 802.113 168.632 802.454 170.168C801.089 173.24 797.59 177.677 791.958 183.48C784.278 191.501 777.707 195.512 772.246 195.512C770.369 195.512 768.833 195.171 767.638 194.488C763.542 192.44 761.494 185.528 761.494 173.752C761.494 170.68 761.579 167.779 761.75 165.048C762.091 162.317 762.433 159.757 762.774 157.368C758.678 162.147 751.937 170.424 742.55 182.2C742.209 186.125 741.014 189.368 738.966 191.928C737.089 194.488 735.467 195.768 734.102 195.768ZM752.79 132.536C764.737 129.123 779.329 123.405 796.566 115.384C815.339 106.68 829.078 99 837.782 92.344C846.315 85.688 850.582 78.8613 850.582 71.864C850.582 69.9867 850.241 68.28 849.558 66.744C846.145 58.2107 837.953 53.944 824.982 53.944C821.398 53.944 818.241 54.2853 815.51 54.968C797.419 58.2107 783.083 68.6213 772.502 86.2C770.625 89.1013 768.065 94.392 764.822 102.072C761.579 109.923 757.569 120.077 752.79 132.536ZM972.126 208.824C955.401 208.824 933.043 199.011 905.054 179.384C896.35 192.696 885.513 199.352 872.542 199.352C870.153 199.352 867.593 199.096 864.862 198.584C855.987 197.048 849.161 193.72 844.382 188.6C839.603 183.48 837.214 178.019 837.214 172.216C837.214 167.267 839.006 163.085 842.59 159.672C846.174 156.259 851.209 154.552 857.694 154.552C859.571 154.552 861.875 154.723 864.606 155.064C871.091 156.429 880.393 160.099 892.51 166.072C894.729 161.464 896.691 156.515 898.398 151.224C887.134 151.736 878.259 149.859 871.774 145.592C865.459 141.325 862.302 135.352 862.302 127.672C862.302 123.235 863.411 118.797 865.63 114.36C859.657 105.315 856.67 95.3307 856.67 84.408C856.67 66.3173 863.241 54.0293 876.382 47.544C879.454 46.008 882.526 45.24 885.598 45.24C893.107 45.24 899.251 48.9093 904.03 56.248C909.662 64.7813 912.478 76.6427 912.478 91.832C912.478 103.608 910.601 117.005 906.846 132.024C909.747 132.024 912.734 131.597 915.806 130.744C918.537 116.92 921.353 105.059 924.254 95.16C927.326 85.0907 930.569 76.984 933.982 70.84C943.369 53.7733 952.585 45.24 961.63 45.24C966.75 45.24 970.846 48.056 973.918 53.688C977.161 59.1493 978.782 65.976 978.782 74.168C978.782 84.408 976.478 94.3067 971.87 103.864C967.262 113.251 960.521 121.784 951.646 129.464C941.747 137.997 930.483 144.227 917.854 148.152C916.147 153.784 914.441 158.819 912.734 163.256C911.027 167.523 909.321 171.277 907.614 174.52C911.71 176.909 915.721 179.128 919.646 181.176C923.571 183.224 927.497 185.187 931.422 187.064C942.003 191.843 951.39 195.512 959.582 198.072C967.945 200.803 975.283 202.168 981.598 202.168C990.814 202.168 996.617 198.669 999.006 191.672C999.518 190.307 1000.2 189.624 1001.05 189.624C1001.74 189.624 1001.82 190.392 1001.31 191.928C998.75 198.584 993.715 203.363 986.206 206.264C982.11 207.971 977.417 208.824 972.126 208.824ZM903.518 132.024C906.761 117.347 908.382 104.12 908.382 92.344C908.382 77.1547 905.993 65.6347 901.214 57.784C897.118 50.7867 891.827 47.288 885.342 47.288C878.857 47.288 873.225 50.4453 868.446 56.76C863.326 63.7573 860.766 72.12 860.766 81.848C860.766 91.2347 863.155 100.707 867.934 110.264C870.665 105.827 874.334 101.987 878.942 98.744C879.625 98.4027 880.222 98.232 880.734 98.232C881.417 98.232 881.502 98.488 880.99 99C875.529 103.437 871.859 108.557 869.982 114.36C877.491 125.624 888.67 131.512 903.518 132.024ZM919.39 143.032C934.921 138.765 947.806 129.293 958.046 114.616C968.286 100.109 973.406 84.5787 973.406 68.024C973.406 59.32 971.614 54.0293 968.03 52.152C967.347 51.64 966.494 51.384 965.47 51.384C962.227 51.384 958.302 54.5413 953.694 60.856C946.526 70.584 939.187 85.688 931.678 106.168C930.825 108.557 929.801 111.544 928.606 115.128C927.411 118.541 926.046 122.637 924.51 127.416C934.238 122.637 942.089 114.189 948.062 102.072C948.062 101.56 948.318 101.304 948.83 101.304C950.195 101.304 950.537 101.816 949.854 102.84C943.369 115.981 934.665 125.112 923.742 130.232L921.438 137.144C921.097 138.339 920.755 139.448 920.414 140.472C920.073 141.325 919.731 142.179 919.39 143.032ZM899.678 146.36C900.361 144.483 900.958 142.52 901.47 140.472C901.982 138.424 902.494 136.291 903.006 134.072C889.011 133.901 877.747 128.867 869.214 118.968C868.531 127.16 871.433 133.901 877.918 139.192C883.891 143.971 891.145 146.36 899.678 146.36ZM903.006 146.36C906.249 146.189 909.577 145.677 912.99 144.824L915.294 133.048C912.734 133.731 909.747 134.072 906.334 134.072C905.822 136.291 905.31 138.424 904.798 140.472C904.286 142.52 903.689 144.483 903.006 146.36ZM903.518 171.96C904.371 170.424 905.481 167.693 906.846 163.768C908.211 160.013 909.833 155.149 911.71 149.176L906.59 150.2C904.883 150.541 903.177 150.797 901.47 150.968C900.275 154.381 899.166 157.453 898.142 160.184C897.118 162.744 896.009 165.133 894.814 167.352L903.518 171.96ZM867.934 196.024H870.238C884.062 196.024 894.302 189.624 900.958 176.824L897.886 175.032C897.033 174.861 896.094 174.52 895.07 174.008C894.217 173.496 893.193 172.899 891.998 172.216C884.318 184.845 875.529 190.904 865.63 190.392C864.947 190.392 864.521 190.051 864.35 189.368L865.374 188.344C874.761 188.856 882.867 183.139 889.694 171.192C885.427 169.315 881.673 167.779 878.43 166.584C875.187 165.219 872.457 164.365 870.238 164.024C867.849 163.683 865.63 163.512 863.582 163.512C857.779 163.512 853.257 164.963 850.014 167.864C846.942 170.595 845.406 173.923 845.406 177.848C845.406 181.944 847.113 185.699 850.526 189.112C854.11 192.867 859.145 195.085 865.63 195.768L867.934 196.024ZM971.26 198.072C966.993 198.072 963.495 196.109 960.764 192.184C958.033 188.259 956.668 183.224 956.668 177.08C956.668 172.131 957.521 167.096 959.228 161.976C965.543 142.861 973.308 132.877 982.524 132.024C983.548 130.829 984.999 130.232 986.876 130.232C990.289 130.232 993.617 131.768 996.86 134.84C1000.27 137.912 1002.15 141.155 1002.49 144.568C1004.71 147.299 1007.95 148.664 1012.22 148.664C1013.59 148.664 1015.63 148.493 1018.36 148.152C1021.09 147.811 1023.14 147.64 1024.51 147.64C1025.19 147.64 1025.36 148.067 1025.02 148.92C1024.85 149.603 1024 150.371 1022.46 151.224C1019.39 152.76 1015.55 153.699 1010.94 154.04H1007.87C1004.97 154.04 1002.83 153.699 1001.47 153.016C1002.32 159.501 999.249 168.803 992.252 180.92C985.937 192.355 978.94 198.072 971.26 198.072ZM972.796 192.952C977.233 192.952 982.012 188.941 987.132 180.92C988.497 178.701 989.777 176.227 990.972 173.496C992.337 170.765 993.447 167.693 994.3 164.28C996.007 158.477 996.689 154.296 996.348 151.736C990.033 150.712 986.364 147.043 985.34 140.728C980.732 142.093 976.295 147.981 972.028 158.392C968.103 168.12 966.14 175.971 966.14 181.944C966.14 189.283 968.359 192.952 972.796 192.952ZM1023.32 195.512C1017.52 195.512 1014.61 192.696 1014.61 187.064C1014.61 182.627 1016.24 175.544 1019.48 165.816C1022.21 156.6 1023.49 151.139 1023.32 149.432C1022.46 146.019 1021.27 144.056 1019.73 143.544C1018.2 143.032 1019.22 140.216 1022.81 135.096C1023.32 134.243 1024.77 133.816 1027.16 133.816C1032.79 133.816 1035.61 134.755 1035.61 136.632C1035.61 139.533 1033.98 147.384 1030.74 160.184C1027.5 172.643 1025.88 180.92 1025.88 185.016C1025.88 188.088 1026.9 189.624 1028.95 189.624C1033.73 189.624 1040.47 184.419 1049.17 174.008C1058.9 162.232 1064.11 152.931 1064.79 146.104C1061.04 142.179 1059.16 137.741 1059.16 132.792C1059.16 128.184 1060.61 125.88 1063.51 125.88C1067.44 125.88 1069.4 129.635 1069.4 137.144C1069.4 140.557 1069.23 143.117 1068.89 144.824C1071.28 146.189 1073.49 146.872 1075.54 146.872C1077.93 146.872 1079.89 146.104 1081.43 144.568C1082.45 144.909 1082.97 145.421 1082.97 146.104C1082.97 147.981 1081.86 149.261 1079.64 149.944C1078.1 150.456 1076.57 150.712 1075.03 150.712C1072.47 150.712 1070.17 149.944 1068.12 148.408C1068.12 150.797 1066.67 154.893 1063.77 160.696C1062.06 163.939 1060.18 166.925 1058.13 169.656C1056.26 172.387 1054.21 174.947 1051.99 177.336C1040.9 189.453 1031.34 195.512 1023.32 195.512ZM1092.77 198.072C1087.65 198.072 1083.39 196.536 1079.97 193.464C1076.56 190.221 1074.85 184.76 1074.85 177.08C1074.85 175.032 1075.02 172.813 1075.36 170.424C1076.9 161.72 1080.48 153.443 1086.12 145.592C1093.11 136.035 1100.37 131.256 1107.88 131.256C1111.8 131.256 1115.47 132.365 1118.88 134.584C1122.3 136.632 1124 139.704 1124 143.8C1124 148.408 1122.13 153.187 1118.37 158.136H1123.49C1124.35 158.136 1124.86 158.221 1125.03 158.392C1125.03 159.416 1121.87 160.525 1115.56 161.72C1111.8 165.987 1108.99 168.12 1107.11 168.12C1106.77 168.12 1106.6 167.949 1106.6 167.608C1106.6 167.779 1107.88 166.072 1110.44 162.488C1108.22 162.488 1105.23 162.659 1101.48 163C1097.89 163.171 1093.54 163.597 1088.42 164.28C1086.54 169.4 1085.6 174.179 1085.6 178.616C1085.6 184.248 1087.14 188.344 1090.21 190.904C1092.09 192.611 1094.39 193.464 1097.12 193.464C1097.64 193.464 1098.15 193.464 1098.66 193.464C1099.17 193.464 1099.68 193.379 1100.2 193.208C1111.12 191.331 1121.7 185.016 1131.94 174.264C1132.79 173.069 1133.48 172.899 1133.99 173.752C1134.16 173.923 1134.24 174.179 1134.24 174.52C1134.24 175.203 1133.73 176.056 1132.71 177.08C1129.12 181.688 1123.49 186.211 1115.81 190.648C1107.28 195.597 1099.6 198.072 1092.77 198.072ZM1090.98 158.904C1093.37 158.733 1096.44 158.648 1100.2 158.648L1113 158.392C1114.87 154.637 1116.07 151.651 1116.58 149.432C1117.09 147.213 1117.35 145.421 1117.35 144.056C1117.35 140.472 1115.98 138.68 1113.25 138.68C1109.84 138.68 1106.08 140.728 1101.99 144.824C1099.6 147.213 1097.47 149.603 1095.59 151.992C1093.71 154.211 1092.17 156.515 1090.98 158.904Z" fill="#744DBA"/>
</svg>
